<mxfile host="app.diagrams.net" modified="2023-11-03T12:43:03.571Z" agent="Mozilla/5.0 (Windows NT 10.0; Win64; x64) AppleWebKit/537.36 (KHTML, like Gecko) Chrome/118.0.0.0 Safari/537.36" version="22.0.8" etag="0dnZYoV7JDH4vaStWzjE" type="github">
  <diagram name="페이지-1" id="R1-C9mKVq-8yYl0TJ9Pb">
    <mxGraphModel>
      <root>
        <mxCell id="0" />
        <mxCell id="1" parent="0" />
      </root>
    </mxGraphModel>
  </diagram>
</mxfile>
